<mxfile host="app.diagrams.net" modified="2021-03-15T08:44:12.845Z" agent="5.0 (Windows NT 10.0; Win64; x64) AppleWebKit/537.36 (KHTML, like Gecko) Chrome/89.0.4389.72 Safari/537.36" etag="7G1RhV6kUSJVCHR2fUXz" version="14.4.4" type="github">
  <diagram id="C5RBs43oDa-KdzZeNtuy" name="Page-1">
    <mxGraphModel dx="1422" dy="794" grid="1" gridSize="10" guides="1" tooltips="1" connect="1" arrows="1" fold="1" page="1" pageScale="1" pageWidth="827" pageHeight="1169" math="0" shadow="0">
      <root>
        <mxCell id="WIyWlLk6GJQsqaUBKTNV-0" />
        <mxCell id="WIyWlLk6GJQsqaUBKTNV-1" parent="WIyWlLk6GJQsqaUBKTNV-0" />
        <mxCell id="8ZOwr5buo_LH_EpZrVhO-26" style="edgeStyle=orthogonalEdgeStyle;rounded=0;orthogonalLoop=1;jettySize=auto;html=1;entryX=0.5;entryY=0;entryDx=0;entryDy=0;" edge="1" parent="WIyWlLk6GJQsqaUBKTNV-1" source="8ZOwr5buo_LH_EpZrVhO-1" target="8ZOwr5buo_LH_EpZrVhO-23">
          <mxGeometry relative="1" as="geometry" />
        </mxCell>
        <mxCell id="8ZOwr5buo_LH_EpZrVhO-1" value="Person arrPerson = v.get(i);" style="rounded=1;whiteSpace=wrap;html=1;absoluteArcSize=1;arcSize=0;strokeWidth=2;" vertex="1" parent="WIyWlLk6GJQsqaUBKTNV-1">
          <mxGeometry x="377.75" y="420" width="205.25" height="70" as="geometry" />
        </mxCell>
        <mxCell id="8ZOwr5buo_LH_EpZrVhO-5" style="edgeStyle=orthogonalEdgeStyle;rounded=0;orthogonalLoop=1;jettySize=auto;html=1;exitX=0.5;exitY=1;exitDx=0;exitDy=0;exitPerimeter=0;entryX=0.5;entryY=0;entryDx=0;entryDy=0;fontSize=13;" edge="1" parent="WIyWlLk6GJQsqaUBKTNV-1" source="8ZOwr5buo_LH_EpZrVhO-6" target="8ZOwr5buo_LH_EpZrVhO-14">
          <mxGeometry relative="1" as="geometry" />
        </mxCell>
        <mxCell id="8ZOwr5buo_LH_EpZrVhO-6" value="&lt;span style=&quot;text-align: left&quot;&gt;Arrange( ): void&lt;/span&gt;" style="strokeWidth=2;html=1;shape=mxgraph.flowchart.terminator;whiteSpace=wrap;" vertex="1" parent="WIyWlLk6GJQsqaUBKTNV-1">
          <mxGeometry x="415" y="30" width="130" height="70" as="geometry" />
        </mxCell>
        <mxCell id="8ZOwr5buo_LH_EpZrVhO-7" value="return;" style="strokeWidth=2;html=1;shape=mxgraph.flowchart.terminator;whiteSpace=wrap;" vertex="1" parent="WIyWlLk6GJQsqaUBKTNV-1">
          <mxGeometry x="415" y="860" width="130" height="70" as="geometry" />
        </mxCell>
        <mxCell id="8ZOwr5buo_LH_EpZrVhO-8" style="edgeStyle=orthogonalEdgeStyle;rounded=0;orthogonalLoop=1;jettySize=auto;html=1;exitX=0.5;exitY=1;exitDx=0;exitDy=0;entryX=0.5;entryY=0;entryDx=0;entryDy=0;entryPerimeter=0;fontSize=13;" edge="1" parent="WIyWlLk6GJQsqaUBKTNV-1" source="8ZOwr5buo_LH_EpZrVhO-9" target="8ZOwr5buo_LH_EpZrVhO-7">
          <mxGeometry relative="1" as="geometry" />
        </mxCell>
        <mxCell id="8ZOwr5buo_LH_EpZrVhO-9" value="textarea(&quot;출력 완료&quot;);" style="rounded=1;whiteSpace=wrap;html=1;absoluteArcSize=1;arcSize=0;strokeWidth=2;" vertex="1" parent="WIyWlLk6GJQsqaUBKTNV-1">
          <mxGeometry x="369.5" y="720" width="221" height="80" as="geometry" />
        </mxCell>
        <mxCell id="8ZOwr5buo_LH_EpZrVhO-10" value="참" style="edgeStyle=orthogonalEdgeStyle;rounded=0;orthogonalLoop=1;jettySize=auto;html=1;exitX=0.5;exitY=1;exitDx=0;exitDy=0;exitPerimeter=0;entryX=0.5;entryY=0;entryDx=0;entryDy=0;fontSize=13;" edge="1" parent="WIyWlLk6GJQsqaUBKTNV-1" source="8ZOwr5buo_LH_EpZrVhO-12" target="8ZOwr5buo_LH_EpZrVhO-1">
          <mxGeometry y="-10" relative="1" as="geometry">
            <mxPoint as="offset" />
            <mxPoint x="480" y="390" as="targetPoint" />
          </mxGeometry>
        </mxCell>
        <mxCell id="8ZOwr5buo_LH_EpZrVhO-11" value="거짓" style="edgeStyle=orthogonalEdgeStyle;rounded=0;orthogonalLoop=1;jettySize=auto;html=1;exitX=1;exitY=0.5;exitDx=0;exitDy=0;exitPerimeter=0;fontSize=13;entryX=1;entryY=0.5;entryDx=0;entryDy=0;" edge="1" parent="WIyWlLk6GJQsqaUBKTNV-1" source="8ZOwr5buo_LH_EpZrVhO-12" target="8ZOwr5buo_LH_EpZrVhO-9">
          <mxGeometry relative="1" as="geometry">
            <mxPoint x="700" y="770" as="targetPoint" />
            <Array as="points">
              <mxPoint x="690" y="285" />
              <mxPoint x="690" y="760" />
            </Array>
          </mxGeometry>
        </mxCell>
        <mxCell id="8ZOwr5buo_LH_EpZrVhO-12" value="i&amp;lt; v.size();" style="strokeWidth=2;html=1;shape=mxgraph.flowchart.decision;whiteSpace=wrap;" vertex="1" parent="WIyWlLk6GJQsqaUBKTNV-1">
          <mxGeometry x="377" y="220" width="206" height="130" as="geometry" />
        </mxCell>
        <mxCell id="8ZOwr5buo_LH_EpZrVhO-13" style="edgeStyle=orthogonalEdgeStyle;rounded=0;orthogonalLoop=1;jettySize=auto;html=1;exitX=0.5;exitY=1;exitDx=0;exitDy=0;entryX=0.5;entryY=0;entryDx=0;entryDy=0;entryPerimeter=0;fontSize=13;" edge="1" parent="WIyWlLk6GJQsqaUBKTNV-1" source="8ZOwr5buo_LH_EpZrVhO-14" target="8ZOwr5buo_LH_EpZrVhO-12">
          <mxGeometry relative="1" as="geometry" />
        </mxCell>
        <mxCell id="8ZOwr5buo_LH_EpZrVhO-14" value="int i = 0;" style="rounded=1;whiteSpace=wrap;html=1;absoluteArcSize=1;arcSize=14;strokeWidth=2;" vertex="1" parent="WIyWlLk6GJQsqaUBKTNV-1">
          <mxGeometry x="435" y="140" width="90" height="40" as="geometry" />
        </mxCell>
        <mxCell id="8ZOwr5buo_LH_EpZrVhO-20" style="edgeStyle=orthogonalEdgeStyle;rounded=0;orthogonalLoop=1;jettySize=auto;html=1;exitX=0;exitY=0.5;exitDx=0;exitDy=0;entryX=0;entryY=0.5;entryDx=0;entryDy=0;entryPerimeter=0;" edge="1" parent="WIyWlLk6GJQsqaUBKTNV-1" source="8ZOwr5buo_LH_EpZrVhO-17" target="8ZOwr5buo_LH_EpZrVhO-12">
          <mxGeometry relative="1" as="geometry">
            <Array as="points">
              <mxPoint x="270" y="670" />
              <mxPoint x="270" y="285" />
            </Array>
          </mxGeometry>
        </mxCell>
        <mxCell id="8ZOwr5buo_LH_EpZrVhO-17" value="i++" style="rounded=1;whiteSpace=wrap;html=1;absoluteArcSize=1;arcSize=0;strokeWidth=2;" vertex="1" parent="WIyWlLk6GJQsqaUBKTNV-1">
          <mxGeometry x="435" y="650" width="90" height="40" as="geometry" />
        </mxCell>
        <mxCell id="8ZOwr5buo_LH_EpZrVhO-25" style="edgeStyle=orthogonalEdgeStyle;rounded=0;orthogonalLoop=1;jettySize=auto;html=1;entryX=0.5;entryY=0;entryDx=0;entryDy=0;" edge="1" parent="WIyWlLk6GJQsqaUBKTNV-1" source="8ZOwr5buo_LH_EpZrVhO-23" target="8ZOwr5buo_LH_EpZrVhO-17">
          <mxGeometry relative="1" as="geometry" />
        </mxCell>
        <mxCell id="8ZOwr5buo_LH_EpZrVhO-23" value="textarea(&quot;이름: &quot;+arrPerson.getName());&lt;br&gt;textarea(&quot;번호: &quot;+arrPerson.getPH());" style="rounded=1;whiteSpace=wrap;html=1;absoluteArcSize=1;arcSize=0;strokeWidth=2;" vertex="1" parent="WIyWlLk6GJQsqaUBKTNV-1">
          <mxGeometry x="363.5" y="530" width="233" height="70" as="geometry" />
        </mxCell>
      </root>
    </mxGraphModel>
  </diagram>
</mxfile>
